<svg version="1" xmlns="http://www.w3.org/2000/svg" width="933.333" height="933.333" viewBox="0 0 700.000000 700.000000"><path d="M521.7 135.6c-.1.1-4 .5-8.5.8-8.6.7-13.6 1.3-18.1 2.1-1.4.2-4.4.7-6.6 1-7.4 1.2-31.9 6.7-38.5 8.7-27.7 8.5-40.8 13.6-62.5 24.4-9.3 4.7-19 9.7-21.5 11.2s-6 3.6-7.9 4.7c-34.7 20.5-73.5 54.4-104.2 91-7 8.3-25.9 33.1-25.9 33.9 0 .2-2.4 3.9-5.3 8.2-10.9 16.3-27.1 46.7-33.7 63.4-8.7 21.7-17.7 50.7-20.5 65.5-3.5 18.7-4.9 28-6 39-.4 3.8-1 7.9-1.2 9-.7 2.9-1.2 61.1-.6 63.6.6 2 1 2 21.2 1.5 11.3-.2 21.7-.7 23.1-.9 1.4-.3 4.6-.8 7.1-1.1 56.4-7.7 112.2-33.4 163.4-75.2 15.3-12.4 17.8-14.7 35.1-31.9 25.7-25.7 38.6-41 54.8-65.5 21-31.7 35.2-60.8 47.6-98 5-14.9 13.6-46.3 15.4-56.5.3-1.7.8-4.1 1.1-5.5.2-1.3.7-4.2 1.1-6.4.3-2.2.7-4.3.9-4.6.2-.3 1.3-7.8 2.5-16.5 3.5-26.4 3.6-28 4.5-46.5.4-7.4.8-15 1-16.8l.3-3.2-9 .2c-4.9.2-9 .3-9.1.4z"/></svg>