<?xml version="1.0" encoding="UTF-8" standalone="no"?><!DOCTYPE svg PUBLIC "-//W3C//DTD SVG 1.1//EN" "http://www.w3.org/Graphics/SVG/1.1/DTD/svg11.dtd"><svg width="100%" height="100%" viewBox="0 0 468 468" version="1.1" xmlns="http://www.w3.org/2000/svg" xmlns:xlink="http://www.w3.org/1999/xlink" xml:space="preserve" xmlns:serif="http://www.serif.com/" style="fill-rule:evenodd;clip-rule:evenodd;stroke-linejoin:round;stroke-miterlimit:1.41421;"><g><rect id="p" x="12" y="12" width="12" height="12"/><rect id="p1" serif:id="p" x="24" y="12" width="12" height="12"/><rect id="p2" serif:id="p" x="36" y="12" width="12" height="12"/><rect id="p3" serif:id="p" x="48" y="12" width="12" height="12"/><rect id="p4" serif:id="p" x="60" y="12" width="12" height="12"/><rect id="p5" serif:id="p" x="72" y="12" width="12" height="12"/><rect id="p6" serif:id="p" x="84" y="12" width="12" height="12"/><rect id="p7" serif:id="p" x="144" y="12" width="12" height="12"/><rect id="p8" serif:id="p" x="192" y="12" width="12" height="12"/><rect id="p9" serif:id="p" x="204" y="12" width="12" height="12"/><rect id="p10" serif:id="p" x="216" y="12" width="12" height="12"/><rect id="p11" serif:id="p" x="228" y="12" width="12" height="12"/><rect id="p12" serif:id="p" x="240" y="12" width="12" height="12"/><rect id="p13" serif:id="p" x="264" y="12" width="12" height="12"/><rect id="p14" serif:id="p" x="276" y="12" width="12" height="12"/><rect id="p15" serif:id="p" x="312" y="12" width="12" height="12"/><rect id="p16" serif:id="p" x="324" y="12" width="12" height="12"/><rect id="p17" serif:id="p" x="336" y="12" width="12" height="12"/><rect id="p18" serif:id="p" x="348" y="12" width="12" height="12"/><rect id="p19" serif:id="p" x="372" y="12" width="12" height="12"/><rect id="p20" serif:id="p" x="384" y="12" width="12" height="12"/><rect id="p21" serif:id="p" x="396" y="12" width="12" height="12"/><rect id="p22" serif:id="p" x="408" y="12" width="12" height="12"/><rect id="p23" serif:id="p" x="420" y="12" width="12" height="12"/><rect id="p24" serif:id="p" x="432" y="12" width="12" height="12"/><rect id="p25" serif:id="p" x="444" y="12" width="12" height="12"/><rect id="p26" serif:id="p" x="12" y="24" width="12" height="12"/><rect id="p27" serif:id="p" x="84" y="24" width="12" height="12"/><rect id="p28" serif:id="p" x="108" y="24" width="12" height="12"/><rect id="p29" serif:id="p" x="156" y="24" width="12" height="12"/><rect id="p30" serif:id="p" x="168" y="24" width="12" height="12"/><rect id="p31" serif:id="p" x="180" y="24" width="12" height="12"/><rect id="p32" serif:id="p" x="204" y="24" width="12" height="12"/><rect id="p33" serif:id="p" x="240" y="24" width="12" height="12"/><rect id="p34" serif:id="p" x="264" y="24" width="12" height="12"/><rect id="p35" serif:id="p" x="288" y="24" width="12" height="12"/><rect id="p36" serif:id="p" x="300" y="24" width="12" height="12"/><rect id="p37" serif:id="p" x="324" y="24" width="12" height="12"/><rect id="p38" serif:id="p" x="372" y="24" width="12" height="12"/><rect id="p39" serif:id="p" x="444" y="24" width="12" height="12"/><rect id="p40" serif:id="p" x="12" y="36" width="12" height="12"/><rect id="p41" serif:id="p" x="36" y="36" width="12" height="12"/><rect id="p42" serif:id="p" x="48" y="36" width="12" height="12"/><rect id="p43" serif:id="p" x="60" y="36" width="12" height="12"/><rect id="p44" serif:id="p" x="84" y="36" width="12" height="12"/><rect id="p45" serif:id="p" x="120" y="36" width="12" height="12"/><rect id="p46" serif:id="p" x="132" y="36" width="12" height="12"/><rect id="p47" serif:id="p" x="156" y="36" width="12" height="12"/><rect id="p48" serif:id="p" x="168" y="36" width="12" height="12"/><rect id="p49" serif:id="p" x="192" y="36" width="12" height="12"/><rect id="p50" serif:id="p" x="216" y="36" width="12" height="12"/><rect id="p51" serif:id="p" x="228" y="36" width="12" height="12"/><rect id="p52" serif:id="p" x="264" y="36" width="12" height="12"/><rect id="p53" serif:id="p" x="276" y="36" width="12" height="12"/><rect id="p54" serif:id="p" x="288" y="36" width="12" height="12"/><rect id="p55" serif:id="p" x="300" y="36" width="12" height="12"/><rect id="p56" serif:id="p" x="324" y="36" width="12" height="12"/><rect id="p57" serif:id="p" x="372" y="36" width="12" height="12"/><rect id="p58" serif:id="p" x="396" y="36" width="12" height="12"/><rect id="p59" serif:id="p" x="408" y="36" width="12" height="12"/><rect id="p60" serif:id="p" x="420" y="36" width="12" height="12"/><rect id="p61" serif:id="p" x="444" y="36" width="12" height="12"/><rect id="p62" serif:id="p" x="12" y="48" width="12" height="12"/><rect id="p63" serif:id="p" x="36" y="48" width="12" height="12"/><rect id="p64" serif:id="p" x="48" y="48" width="12" height="12"/><rect id="p65" serif:id="p" x="60" y="48" width="12" height="12"/><rect id="p66" serif:id="p" x="84" y="48" width="12" height="12"/><rect id="p67" serif:id="p" x="120" y="48" width="12" height="12"/><rect id="p68" serif:id="p" x="132" y="48" width="12" height="12"/><rect id="p69" serif:id="p" x="144" y="48" width="12" height="12"/><rect id="p70" serif:id="p" x="156" y="48" width="12" height="12"/><rect id="p71" serif:id="p" x="216" y="48" width="12" height="12"/><rect id="p72" serif:id="p" x="228" y="48" width="12" height="12"/><rect id="p73" serif:id="p" x="240" y="48" width="12" height="12"/><rect id="p74" serif:id="p" x="264" y="48" width="12" height="12"/><rect id="p75" serif:id="p" x="276" y="48" width="12" height="12"/><rect id="p76" serif:id="p" x="288" y="48" width="12" height="12"/><rect id="p77" serif:id="p" x="324" y="48" width="12" height="12"/><rect id="p78" serif:id="p" x="348" y="48" width="12" height="12"/><rect id="p79" serif:id="p" x="372" y="48" width="12" height="12"/><rect id="p80" serif:id="p" x="396" y="48" width="12" height="12"/><rect id="p81" serif:id="p" x="408" y="48" width="12" height="12"/><rect id="p82" serif:id="p" x="420" y="48" width="12" height="12"/><rect id="p83" serif:id="p" x="444" y="48" width="12" height="12"/><rect id="p84" serif:id="p" x="12" y="60" width="12" height="12"/><rect id="p85" serif:id="p" x="36" y="60" width="12" height="12"/><rect id="p86" serif:id="p" x="48" y="60" width="12" height="12"/><rect id="p87" serif:id="p" x="60" y="60" width="12" height="12"/><rect id="p88" serif:id="p" x="84" y="60" width="12" height="12"/><rect id="p89" serif:id="p" x="120" y="60" width="12" height="12"/><rect id="p90" serif:id="p" x="144" y="60" width="12" height="12"/><rect id="p91" serif:id="p" x="156" y="60" width="12" height="12"/><rect id="p92" serif:id="p" x="192" y="60" width="12" height="12"/><rect id="p93" serif:id="p" x="204" y="60" width="12" height="12"/><rect id="p94" serif:id="p" x="240" y="60" width="12" height="12"/><rect id="p95" serif:id="p" x="264" y="60" width="12" height="12"/><rect id="p96" serif:id="p" x="288" y="60" width="12" height="12"/><rect id="p97" serif:id="p" x="336" y="60" width="12" height="12"/><rect id="p98" serif:id="p" x="372" y="60" width="12" height="12"/><rect id="p99" serif:id="p" x="396" y="60" width="12" height="12"/><rect id="p100" serif:id="p" x="408" y="60" width="12" height="12"/><rect id="p101" serif:id="p" x="420" y="60" width="12" height="12"/><rect id="p102" serif:id="p" x="444" y="60" width="12" height="12"/><rect id="p103" serif:id="p" x="12" y="72" width="12" height="12"/><rect id="p104" serif:id="p" x="84" y="72" width="12" height="12"/><rect id="p105" serif:id="p" x="108" y="72" width="12" height="12"/><rect id="p106" serif:id="p" x="120" y="72" width="12" height="12"/><rect id="p107" serif:id="p" x="132" y="72" width="12" height="12"/><rect id="p108" serif:id="p" x="144" y="72" width="12" height="12"/><rect id="p109" serif:id="p" x="156" y="72" width="12" height="12"/><rect id="p110" serif:id="p" x="168" y="72" width="12" height="12"/><rect id="p111" serif:id="p" x="192" y="72" width="12" height="12"/><rect id="p112" serif:id="p" x="240" y="72" width="12" height="12"/><rect id="p113" serif:id="p" x="276" y="72" width="12" height="12"/><rect id="p114" serif:id="p" x="288" y="72" width="12" height="12"/><rect id="p115" serif:id="p" x="348" y="72" width="12" height="12"/><rect id="p116" serif:id="p" x="372" y="72" width="12" height="12"/><rect id="p117" serif:id="p" x="444" y="72" width="12" height="12"/><rect id="p118" serif:id="p" x="12" y="84" width="12" height="12"/><rect id="p119" serif:id="p" x="24" y="84" width="12" height="12"/><rect id="p120" serif:id="p" x="36" y="84" width="12" height="12"/><rect id="p121" serif:id="p" x="48" y="84" width="12" height="12"/><rect id="p122" serif:id="p" x="60" y="84" width="12" height="12"/><rect id="p123" serif:id="p" x="72" y="84" width="12" height="12"/><rect id="p124" serif:id="p" x="84" y="84" width="12" height="12"/><rect id="p125" serif:id="p" x="108" y="84" width="12" height="12"/><rect id="p126" serif:id="p" x="132" y="84" width="12" height="12"/><rect id="p127" serif:id="p" x="156" y="84" width="12" height="12"/><rect id="p128" serif:id="p" x="180" y="84" width="12" height="12"/><rect id="p129" serif:id="p" x="204" y="84" width="12" height="12"/><rect id="p130" serif:id="p" x="228" y="84" width="12" height="12"/><rect id="p131" serif:id="p" x="252" y="84" width="12" height="12"/><rect id="p132" serif:id="p" x="276" y="84" width="12" height="12"/><rect id="p133" serif:id="p" x="300" y="84" width="12" height="12"/><rect id="p134" serif:id="p" x="324" y="84" width="12" height="12"/><rect id="p135" serif:id="p" x="348" y="84" width="12" height="12"/><rect id="p136" serif:id="p" x="372" y="84" width="12" height="12"/><rect id="p137" serif:id="p" x="384" y="84" width="12" height="12"/><rect id="p138" serif:id="p" x="396" y="84" width="12" height="12"/><rect id="p139" serif:id="p" x="408" y="84" width="12" height="12"/><rect id="p140" serif:id="p" x="420" y="84" width="12" height="12"/><rect id="p141" serif:id="p" x="432" y="84" width="12" height="12"/><rect id="p142" serif:id="p" x="444" y="84" width="12" height="12"/><rect id="p143" serif:id="p" x="108" y="96" width="12" height="12"/><rect id="p144" serif:id="p" x="132" y="96" width="12" height="12"/><rect id="p145" serif:id="p" x="180" y="96" width="12" height="12"/><rect id="p146" serif:id="p" x="204" y="96" width="12" height="12"/><rect id="p147" serif:id="p" x="228" y="96" width="12" height="12"/><rect id="p148" serif:id="p" x="252" y="96" width="12" height="12"/><rect id="p149" serif:id="p" x="300" y="96" width="12" height="12"/><rect id="p150" serif:id="p" x="312" y="96" width="12" height="12"/><rect id="p151" serif:id="p" x="60" y="108" width="12" height="12"/><rect id="p152" serif:id="p" x="72" y="108" width="12" height="12"/><rect id="p153" serif:id="p" x="84" y="108" width="12" height="12"/><rect id="p154" serif:id="p" x="96" y="108" width="12" height="12"/><rect id="p155" serif:id="p" x="120" y="108" width="12" height="12"/><rect id="p156" serif:id="p" x="132" y="108" width="12" height="12"/><rect id="p157" serif:id="p" x="156" y="108" width="12" height="12"/><rect id="p158" serif:id="p" x="168" y="108" width="12" height="12"/><rect id="p159" serif:id="p" x="252" y="108" width="12" height="12"/><rect id="p160" serif:id="p" x="300" y="108" width="12" height="12"/><rect id="p161" serif:id="p" x="312" y="108" width="12" height="12"/><rect id="p162" serif:id="p" x="336" y="108" width="12" height="12"/><rect id="p163" serif:id="p" x="372" y="108" width="12" height="12"/><rect id="p164" serif:id="p" x="384" y="108" width="12" height="12"/><rect id="p165" serif:id="p" x="432" y="108" width="12" height="12"/><rect id="p166" serif:id="p" x="24" y="120" width="12" height="12"/><rect id="p167" serif:id="p" x="48" y="120" width="12" height="12"/><rect id="p168" serif:id="p" x="72" y="120" width="12" height="12"/><rect id="p169" serif:id="p" x="108" y="120" width="12" height="12"/><rect id="p170" serif:id="p" x="120" y="120" width="12" height="12"/><rect id="p171" serif:id="p" x="144" y="120" width="12" height="12"/><rect id="p172" serif:id="p" x="216" y="120" width="12" height="12"/><rect id="p173" serif:id="p" x="240" y="120" width="12" height="12"/><rect id="p174" serif:id="p" x="264" y="120" width="12" height="12"/><rect id="p175" serif:id="p" x="276" y="120" width="12" height="12"/><rect id="p176" serif:id="p" x="288" y="120" width="12" height="12"/><rect id="p177" serif:id="p" x="324" y="120" width="12" height="12"/><rect id="p178" serif:id="p" x="360" y="120" width="12" height="12"/><rect id="p179" serif:id="p" x="372" y="120" width="12" height="12"/><rect id="p180" serif:id="p" x="396" y="120" width="12" height="12"/><rect id="p181" serif:id="p" x="420" y="120" width="12" height="12"/><rect id="p182" serif:id="p" x="24" y="132" width="12" height="12"/><rect id="p183" serif:id="p" x="36" y="132" width="12" height="12"/><rect id="p184" serif:id="p" x="60" y="132" width="12" height="12"/><rect id="p185" serif:id="p" x="84" y="132" width="12" height="12"/><rect id="p186" serif:id="p" x="96" y="132" width="12" height="12"/><rect id="p187" serif:id="p" x="108" y="132" width="12" height="12"/><rect id="p188" serif:id="p" x="120" y="132" width="12" height="12"/><rect id="p189" serif:id="p" x="132" y="132" width="12" height="12"/><rect id="p190" serif:id="p" x="168" y="132" width="12" height="12"/><rect id="p191" serif:id="p" x="180" y="132" width="12" height="12"/><rect id="p192" serif:id="p" x="204" y="132" width="12" height="12"/><rect id="p193" serif:id="p" x="216" y="132" width="12" height="12"/><rect id="p194" serif:id="p" x="240" y="132" width="12" height="12"/><rect id="p195" serif:id="p" x="252" y="132" width="12" height="12"/><rect id="p196" serif:id="p" x="264" y="132" width="12" height="12"/><rect id="p197" serif:id="p" x="276" y="132" width="12" height="12"/><rect id="p198" serif:id="p" x="312" y="132" width="12" height="12"/><rect id="p199" serif:id="p" x="324" y="132" width="12" height="12"/><rect id="p200" serif:id="p" x="336" y="132" width="12" height="12"/><rect id="p201" serif:id="p" x="348" y="132" width="12" height="12"/><rect id="p202" serif:id="p" x="360" y="132" width="12" height="12"/><rect id="p203" serif:id="p" x="384" y="132" width="12" height="12"/><rect id="p204" serif:id="p" x="420" y="132" width="12" height="12"/><rect id="p205" serif:id="p" x="24" y="144" width="12" height="12"/><rect id="p206" serif:id="p" x="48" y="144" width="12" height="12"/><rect id="p207" serif:id="p" x="60" y="144" width="12" height="12"/><rect id="p208" serif:id="p" x="72" y="144" width="12" height="12"/><rect id="p209" serif:id="p" x="108" y="144" width="12" height="12"/><rect id="p210" serif:id="p" x="120" y="144" width="12" height="12"/><rect id="p211" serif:id="p" x="144" y="144" width="12" height="12"/><rect id="p212" serif:id="p" x="156" y="144" width="12" height="12"/><rect id="p213" serif:id="p" x="168" y="144" width="12" height="12"/><rect id="p214" serif:id="p" x="180" y="144" width="12" height="12"/><rect id="p215" serif:id="p" x="192" y="144" width="12" height="12"/><rect id="p216" serif:id="p" x="216" y="144" width="12" height="12"/><rect id="p217" serif:id="p" x="240" y="144" width="12" height="12"/><rect id="p218" serif:id="p" x="252" y="144" width="12" height="12"/><rect id="p219" serif:id="p" x="288" y="144" width="12" height="12"/><rect id="p220" serif:id="p" x="300" y="144" width="12" height="12"/><rect id="p221" serif:id="p" x="324" y="144" width="12" height="12"/><rect id="p222" serif:id="p" x="348" y="144" width="12" height="12"/><rect id="p223" serif:id="p" x="360" y="144" width="12" height="12"/><rect id="p224" serif:id="p" x="396" y="144" width="12" height="12"/><rect id="p225" serif:id="p" x="420" y="144" width="12" height="12"/><rect id="p226" serif:id="p" x="444" y="144" width="12" height="12"/><rect id="p227" serif:id="p" x="12" y="156" width="12" height="12"/><rect id="p228" serif:id="p" x="36" y="156" width="12" height="12"/><rect id="p229" serif:id="p" x="72" y="156" width="12" height="12"/><rect id="p230" serif:id="p" x="84" y="156" width="12" height="12"/><rect id="p231" serif:id="p" x="132" y="156" width="12" height="12"/><rect id="p232" serif:id="p" x="168" y="156" width="12" height="12"/><rect id="p233" serif:id="p" x="180" y="156" width="12" height="12"/><rect id="p234" serif:id="p" x="216" y="156" width="12" height="12"/><rect id="p235" serif:id="p" x="228" y="156" width="12" height="12"/><rect id="p236" serif:id="p" x="252" y="156" width="12" height="12"/><rect id="p237" serif:id="p" x="264" y="156" width="12" height="12"/><rect id="p238" serif:id="p" x="276" y="156" width="12" height="12"/><rect id="p239" serif:id="p" x="288" y="156" width="12" height="12"/><rect id="p240" serif:id="p" x="348" y="156" width="12" height="12"/><rect id="p241" serif:id="p" x="360" y="156" width="12" height="12"/><rect id="p242" serif:id="p" x="372" y="156" width="12" height="12"/><rect id="p243" serif:id="p" x="432" y="156" width="12" height="12"/><rect id="p244" serif:id="p" x="12" y="168" width="12" height="12"/><rect id="p245" serif:id="p" x="24" y="168" width="12" height="12"/><rect id="p246" serif:id="p" x="36" y="168" width="12" height="12"/><rect id="p247" serif:id="p" x="48" y="168" width="12" height="12"/><rect id="p248" serif:id="p" x="72" y="168" width="12" height="12"/><rect id="p249" serif:id="p" x="108" y="168" width="12" height="12"/><rect id="p250" serif:id="p" x="144" y="168" width="12" height="12"/><rect id="p251" serif:id="p" x="156" y="168" width="12" height="12"/><rect id="p252" serif:id="p" x="168" y="168" width="12" height="12"/><rect id="p253" serif:id="p" x="192" y="168" width="12" height="12"/><rect id="p254" serif:id="p" x="204" y="168" width="12" height="12"/><rect id="p255" serif:id="p" x="216" y="168" width="12" height="12"/><rect id="p256" serif:id="p" x="228" y="168" width="12" height="12"/><rect id="p257" serif:id="p" x="240" y="168" width="12" height="12"/><rect id="p258" serif:id="p" x="264" y="168" width="12" height="12"/><rect id="p259" serif:id="p" x="276" y="168" width="12" height="12"/><rect id="p260" serif:id="p" x="300" y="168" width="12" height="12"/><rect id="p261" serif:id="p" x="312" y="168" width="12" height="12"/><rect id="p262" serif:id="p" x="348" y="168" width="12" height="12"/><rect id="p263" serif:id="p" x="360" y="168" width="12" height="12"/><rect id="p264" serif:id="p" x="396" y="168" width="12" height="12"/><rect id="p265" serif:id="p" x="420" y="168" width="12" height="12"/><rect id="p266" serif:id="p" x="432" y="168" width="12" height="12"/><rect id="p267" serif:id="p" x="12" y="180" width="12" height="12"/><rect id="p268" serif:id="p" x="48" y="180" width="12" height="12"/><rect id="p269" serif:id="p" x="60" y="180" width="12" height="12"/><rect id="p270" serif:id="p" x="84" y="180" width="12" height="12"/><rect id="p271" serif:id="p" x="96" y="180" width="12" height="12"/><rect id="p272" serif:id="p" x="108" y="180" width="12" height="12"/><rect id="p273" serif:id="p" x="120" y="180" width="12" height="12"/><rect id="p274" serif:id="p" x="132" y="180" width="12" height="12"/><rect id="p275" serif:id="p" x="156" y="180" width="12" height="12"/><rect id="p276" serif:id="p" x="168" y="180" width="12" height="12"/><rect id="p277" serif:id="p" x="216" y="180" width="12" height="12"/><rect id="p278" serif:id="p" x="228" y="180" width="12" height="12"/><rect id="p279" serif:id="p" x="240" y="180" width="12" height="12"/><rect id="p280" serif:id="p" x="252" y="180" width="12" height="12"/><rect id="p281" serif:id="p" x="276" y="180" width="12" height="12"/><rect id="p282" serif:id="p" x="288" y="180" width="12" height="12"/><rect id="p283" serif:id="p" x="312" y="180" width="12" height="12"/><rect id="p284" serif:id="p" x="336" y="180" width="12" height="12"/><rect id="p285" serif:id="p" x="372" y="180" width="12" height="12"/><rect id="p286" serif:id="p" x="384" y="180" width="12" height="12"/><rect id="p287" serif:id="p" x="408" y="180" width="12" height="12"/><rect id="p288" serif:id="p" x="420" y="180" width="12" height="12"/><rect id="p289" serif:id="p" x="12" y="192" width="12" height="12"/><rect id="p290" serif:id="p" x="36" y="192" width="12" height="12"/><rect id="p291" serif:id="p" x="120" y="192" width="12" height="12"/><rect id="p292" serif:id="p" x="132" y="192" width="12" height="12"/><rect id="p293" serif:id="p" x="144" y="192" width="12" height="12"/><rect id="p294" serif:id="p" x="156" y="192" width="12" height="12"/><rect id="p295" serif:id="p" x="168" y="192" width="12" height="12"/><rect id="p296" serif:id="p" x="204" y="192" width="12" height="12"/><rect id="p297" serif:id="p" x="240" y="192" width="12" height="12"/><rect id="p298" serif:id="p" x="264" y="192" width="12" height="12"/><rect id="p299" serif:id="p" x="324" y="192" width="12" height="12"/><rect id="p300" serif:id="p" x="360" y="192" width="12" height="12"/><rect id="p301" serif:id="p" x="372" y="192" width="12" height="12"/><rect id="p302" serif:id="p" x="420" y="192" width="12" height="12"/><rect id="p303" serif:id="p" x="12" y="204" width="12" height="12"/><rect id="p304" serif:id="p" x="24" y="204" width="12" height="12"/><rect id="p305" serif:id="p" x="48" y="204" width="12" height="12"/><rect id="p306" serif:id="p" x="72" y="204" width="12" height="12"/><rect id="p307" serif:id="p" x="84" y="204" width="12" height="12"/><rect id="p308" serif:id="p" x="108" y="204" width="12" height="12"/><rect id="p309" serif:id="p" x="168" y="204" width="12" height="12"/><rect id="p310" serif:id="p" x="192" y="204" width="12" height="12"/><rect id="p311" serif:id="p" x="240" y="204" width="12" height="12"/><rect id="p312" serif:id="p" x="252" y="204" width="12" height="12"/><rect id="p313" serif:id="p" x="264" y="204" width="12" height="12"/><rect id="p314" serif:id="p" x="288" y="204" width="12" height="12"/><rect id="p315" serif:id="p" x="300" y="204" width="12" height="12"/><rect id="p316" serif:id="p" x="336" y="204" width="12" height="12"/><rect id="p317" serif:id="p" x="360" y="204" width="12" height="12"/><rect id="p318" serif:id="p" x="372" y="204" width="12" height="12"/><rect id="p319" serif:id="p" x="384" y="204" width="12" height="12"/><rect id="p320" serif:id="p" x="408" y="204" width="12" height="12"/><rect id="p321" serif:id="p" x="420" y="204" width="12" height="12"/><rect id="p322" serif:id="p" x="60" y="216" width="12" height="12"/><rect id="p323" serif:id="p" x="72" y="216" width="12" height="12"/><rect id="p324" serif:id="p" x="108" y="216" width="12" height="12"/><rect id="p325" serif:id="p" x="132" y="216" width="12" height="12"/><rect id="p326" serif:id="p" x="156" y="216" width="12" height="12"/><rect id="p327" serif:id="p" x="168" y="216" width="12" height="12"/><rect id="p328" serif:id="p" x="180" y="216" width="12" height="12"/><rect id="p329" serif:id="p" x="204" y="216" width="12" height="12"/><rect id="p330" serif:id="p" x="288" y="216" width="12" height="12"/><rect id="p331" serif:id="p" x="312" y="216" width="12" height="12"/><rect id="p332" serif:id="p" x="324" y="216" width="12" height="12"/><rect id="p333" serif:id="p" x="336" y="216" width="12" height="12"/><rect id="p334" serif:id="p" x="360" y="216" width="12" height="12"/><rect id="p335" serif:id="p" x="384" y="216" width="12" height="12"/><rect id="p336" serif:id="p" x="396" y="216" width="12" height="12"/><rect id="p337" serif:id="p" x="420" y="216" width="12" height="12"/><rect id="p338" serif:id="p" x="24" y="228" width="12" height="12"/><rect id="p339" serif:id="p" x="72" y="228" width="12" height="12"/><rect id="p340" serif:id="p" x="84" y="228" width="12" height="12"/><rect id="p341" serif:id="p" x="96" y="228" width="12" height="12"/><rect id="p342" serif:id="p" x="108" y="228" width="12" height="12"/><rect id="p343" serif:id="p" x="120" y="228" width="12" height="12"/><rect id="p344" serif:id="p" x="144" y="228" width="12" height="12"/><rect id="p345" serif:id="p" x="156" y="228" width="12" height="12"/><rect id="p346" serif:id="p" x="180" y="228" width="12" height="12"/><rect id="p347" serif:id="p" x="216" y="228" width="12" height="12"/><rect id="p348" serif:id="p" x="264" y="228" width="12" height="12"/><rect id="p349" serif:id="p" x="276" y="228" width="12" height="12"/><rect id="p350" serif:id="p" x="288" y="228" width="12" height="12"/><rect id="p351" serif:id="p" x="312" y="228" width="12" height="12"/><rect id="p352" serif:id="p" x="336" y="228" width="12" height="12"/><rect id="p353" serif:id="p" x="360" y="228" width="12" height="12"/><rect id="p354" serif:id="p" x="396" y="228" width="12" height="12"/><rect id="p355" serif:id="p" x="408" y="228" width="12" height="12"/><rect id="p356" serif:id="p" x="420" y="228" width="12" height="12"/><rect id="p357" serif:id="p" x="24" y="240" width="12" height="12"/><rect id="p358" serif:id="p" x="36" y="240" width="12" height="12"/><rect id="p359" serif:id="p" x="48" y="240" width="12" height="12"/><rect id="p360" serif:id="p" x="60" y="240" width="12" height="12"/><rect id="p361" serif:id="p" x="96" y="240" width="12" height="12"/><rect id="p362" serif:id="p" x="108" y="240" width="12" height="12"/><rect id="p363" serif:id="p" x="120" y="240" width="12" height="12"/><rect id="p364" serif:id="p" x="132" y="240" width="12" height="12"/><rect id="p365" serif:id="p" x="168" y="240" width="12" height="12"/><rect id="p366" serif:id="p" x="180" y="240" width="12" height="12"/><rect id="p367" serif:id="p" x="192" y="240" width="12" height="12"/><rect id="p368" serif:id="p" x="216" y="240" width="12" height="12"/><rect id="p369" serif:id="p" x="228" y="240" width="12" height="12"/><rect id="p370" serif:id="p" x="252" y="240" width="12" height="12"/><rect id="p371" serif:id="p" x="264" y="240" width="12" height="12"/><rect id="p372" serif:id="p" x="276" y="240" width="12" height="12"/><rect id="p373" serif:id="p" x="324" y="240" width="12" height="12"/><rect id="p374" serif:id="p" x="336" y="240" width="12" height="12"/><rect id="p375" serif:id="p" x="348" y="240" width="12" height="12"/><rect id="p376" serif:id="p" x="372" y="240" width="12" height="12"/><rect id="p377" serif:id="p" x="384" y="240" width="12" height="12"/><rect id="p378" serif:id="p" x="396" y="240" width="12" height="12"/><rect id="p379" serif:id="p" x="420" y="240" width="12" height="12"/><rect id="p380" serif:id="p" x="432" y="240" width="12" height="12"/><rect id="p381" serif:id="p" x="24" y="252" width="12" height="12"/><rect id="p382" serif:id="p" x="36" y="252" width="12" height="12"/><rect id="p383" serif:id="p" x="84" y="252" width="12" height="12"/><rect id="p384" serif:id="p" x="108" y="252" width="12" height="12"/><rect id="p385" serif:id="p" x="120" y="252" width="12" height="12"/><rect id="p386" serif:id="p" x="132" y="252" width="12" height="12"/><rect id="p387" serif:id="p" x="144" y="252" width="12" height="12"/><rect id="p388" serif:id="p" x="180" y="252" width="12" height="12"/><rect id="p389" serif:id="p" x="228" y="252" width="12" height="12"/><rect id="p390" serif:id="p" x="240" y="252" width="12" height="12"/><rect id="p391" serif:id="p" x="252" y="252" width="12" height="12"/><rect id="p392" serif:id="p" x="264" y="252" width="12" height="12"/><rect id="p393" serif:id="p" x="300" y="252" width="12" height="12"/><rect id="p394" serif:id="p" x="312" y="252" width="12" height="12"/><rect id="p395" serif:id="p" x="360" y="252" width="12" height="12"/><rect id="p396" serif:id="p" x="372" y="252" width="12" height="12"/><rect id="p397" serif:id="p" x="420" y="252" width="12" height="12"/><rect id="p398" serif:id="p" x="12" y="264" width="12" height="12"/><rect id="p399" serif:id="p" x="36" y="264" width="12" height="12"/><rect id="p400" serif:id="p" x="48" y="264" width="12" height="12"/><rect id="p401" serif:id="p" x="60" y="264" width="12" height="12"/><rect id="p402" serif:id="p" x="120" y="264" width="12" height="12"/><rect id="p403" serif:id="p" x="156" y="264" width="12" height="12"/><rect id="p404" serif:id="p" x="180" y="264" width="12" height="12"/><rect id="p405" serif:id="p" x="228" y="264" width="12" height="12"/><rect id="p406" serif:id="p" x="240" y="264" width="12" height="12"/><rect id="p407" serif:id="p" x="264" y="264" width="12" height="12"/><rect id="p408" serif:id="p" x="300" y="264" width="12" height="12"/><rect id="p409" serif:id="p" x="312" y="264" width="12" height="12"/><rect id="p410" serif:id="p" x="324" y="264" width="12" height="12"/><rect id="p411" serif:id="p" x="336" y="264" width="12" height="12"/><rect id="p412" serif:id="p" x="360" y="264" width="12" height="12"/><rect id="p413" serif:id="p" x="372" y="264" width="12" height="12"/><rect id="p414" serif:id="p" x="396" y="264" width="12" height="12"/><rect id="p415" serif:id="p" x="408" y="264" width="12" height="12"/><rect id="p416" serif:id="p" x="24" y="276" width="12" height="12"/><rect id="p417" serif:id="p" x="36" y="276" width="12" height="12"/><rect id="p418" serif:id="p" x="48" y="276" width="12" height="12"/><rect id="p419" serif:id="p" x="72" y="276" width="12" height="12"/><rect id="p420" serif:id="p" x="84" y="276" width="12" height="12"/><rect id="p421" serif:id="p" x="96" y="276" width="12" height="12"/><rect id="p422" serif:id="p" x="108" y="276" width="12" height="12"/><rect id="p423" serif:id="p" x="120" y="276" width="12" height="12"/><rect id="p424" serif:id="p" x="180" y="276" width="12" height="12"/><rect id="p425" serif:id="p" x="204" y="276" width="12" height="12"/><rect id="p426" serif:id="p" x="216" y="276" width="12" height="12"/><rect id="p427" serif:id="p" x="252" y="276" width="12" height="12"/><rect id="p428" serif:id="p" x="264" y="276" width="12" height="12"/><rect id="p429" serif:id="p" x="288" y="276" width="12" height="12"/><rect id="p430" serif:id="p" x="300" y="276" width="12" height="12"/><rect id="p431" serif:id="p" x="336" y="276" width="12" height="12"/><rect id="p432" serif:id="p" x="348" y="276" width="12" height="12"/><rect id="p433" serif:id="p" x="12" y="288" width="12" height="12"/><rect id="p434" serif:id="p" x="36" y="288" width="12" height="12"/><rect id="p435" serif:id="p" x="60" y="288" width="12" height="12"/><rect id="p436" serif:id="p" x="72" y="288" width="12" height="12"/><rect id="p437" serif:id="p" x="96" y="288" width="12" height="12"/><rect id="p438" serif:id="p" x="132" y="288" width="12" height="12"/><rect id="p439" serif:id="p" x="156" y="288" width="12" height="12"/><rect id="p440" serif:id="p" x="168" y="288" width="12" height="12"/><rect id="p441" serif:id="p" x="180" y="288" width="12" height="12"/><rect id="p442" serif:id="p" x="204" y="288" width="12" height="12"/><rect id="p443" serif:id="p" x="216" y="288" width="12" height="12"/><rect id="p444" serif:id="p" x="288" y="288" width="12" height="12"/><rect id="p445" serif:id="p" x="300" y="288" width="12" height="12"/><rect id="p446" serif:id="p" x="324" y="288" width="12" height="12"/><rect id="p447" serif:id="p" x="348" y="288" width="12" height="12"/><rect id="p448" serif:id="p" x="360" y="288" width="12" height="12"/><rect id="p449" serif:id="p" x="384" y="288" width="12" height="12"/><rect id="p450" serif:id="p" x="408" y="288" width="12" height="12"/><rect id="p451" serif:id="p" x="420" y="288" width="12" height="12"/><rect id="p452" serif:id="p" x="432" y="288" width="12" height="12"/><rect id="p453" serif:id="p" x="12" y="300" width="12" height="12"/><rect id="p454" serif:id="p" x="24" y="300" width="12" height="12"/><rect id="p455" serif:id="p" x="72" y="300" width="12" height="12"/><rect id="p456" serif:id="p" x="84" y="300" width="12" height="12"/><rect id="p457" serif:id="p" x="108" y="300" width="12" height="12"/><rect id="p458" serif:id="p" x="132" y="300" width="12" height="12"/><rect id="p459" serif:id="p" x="144" y="300" width="12" height="12"/><rect id="p460" serif:id="p" x="168" y="300" width="12" height="12"/><rect id="p461" serif:id="p" x="192" y="300" width="12" height="12"/><rect id="p462" serif:id="p" x="216" y="300" width="12" height="12"/><rect id="p463" serif:id="p" x="228" y="300" width="12" height="12"/><rect id="p464" serif:id="p" x="252" y="300" width="12" height="12"/><rect id="p465" serif:id="p" x="312" y="300" width="12" height="12"/><rect id="p466" serif:id="p" x="324" y="300" width="12" height="12"/><rect id="p467" serif:id="p" x="336" y="300" width="12" height="12"/><rect id="p468" serif:id="p" x="348" y="300" width="12" height="12"/><rect id="p469" serif:id="p" x="360" y="300" width="12" height="12"/><rect id="p470" serif:id="p" x="372" y="300" width="12" height="12"/><rect id="p471" serif:id="p" x="384" y="300" width="12" height="12"/><rect id="p472" serif:id="p" x="420" y="300" width="12" height="12"/><rect id="p473" serif:id="p" x="432" y="300" width="12" height="12"/><rect id="p474" serif:id="p" x="12" y="312" width="12" height="12"/><rect id="p475" serif:id="p" x="24" y="312" width="12" height="12"/><rect id="p476" serif:id="p" x="60" y="312" width="12" height="12"/><rect id="p477" serif:id="p" x="72" y="312" width="12" height="12"/><rect id="p478" serif:id="p" x="96" y="312" width="12" height="12"/><rect id="p479" serif:id="p" x="120" y="312" width="12" height="12"/><rect id="p480" serif:id="p" x="132" y="312" width="12" height="12"/><rect id="p481" serif:id="p" x="144" y="312" width="12" height="12"/><rect id="p482" serif:id="p" x="168" y="312" width="12" height="12"/><rect id="p483" serif:id="p" x="180" y="312" width="12" height="12"/><rect id="p484" serif:id="p" x="192" y="312" width="12" height="12"/><rect id="p485" serif:id="p" x="204" y="312" width="12" height="12"/><rect id="p486" serif:id="p" x="216" y="312" width="12" height="12"/><rect id="p487" serif:id="p" x="240" y="312" width="12" height="12"/><rect id="p488" serif:id="p" x="252" y="312" width="12" height="12"/><rect id="p489" serif:id="p" x="264" y="312" width="12" height="12"/><rect id="p490" serif:id="p" x="300" y="312" width="12" height="12"/><rect id="p491" serif:id="p" x="312" y="312" width="12" height="12"/><rect id="p492" serif:id="p" x="336" y="312" width="12" height="12"/><rect id="p493" serif:id="p" x="348" y="312" width="12" height="12"/><rect id="p494" serif:id="p" x="360" y="312" width="12" height="12"/><rect id="p495" serif:id="p" x="372" y="312" width="12" height="12"/><rect id="p496" serif:id="p" x="396" y="312" width="12" height="12"/><rect id="p497" serif:id="p" x="408" y="312" width="12" height="12"/><rect id="p498" serif:id="p" x="420" y="312" width="12" height="12"/><rect id="p499" serif:id="p" x="36" y="324" width="12" height="12"/><rect id="p500" serif:id="p" x="84" y="324" width="12" height="12"/><rect id="p501" serif:id="p" x="96" y="324" width="12" height="12"/><rect id="p502" serif:id="p" x="108" y="324" width="12" height="12"/><rect id="p503" serif:id="p" x="144" y="324" width="12" height="12"/><rect id="p504" serif:id="p" x="192" y="324" width="12" height="12"/><rect id="p505" serif:id="p" x="204" y="324" width="12" height="12"/><rect id="p506" serif:id="p" x="216" y="324" width="12" height="12"/><rect id="p507" serif:id="p" x="228" y="324" width="12" height="12"/><rect id="p508" serif:id="p" x="252" y="324" width="12" height="12"/><rect id="p509" serif:id="p" x="264" y="324" width="12" height="12"/><rect id="p510" serif:id="p" x="276" y="324" width="12" height="12"/><rect id="p511" serif:id="p" x="288" y="324" width="12" height="12"/><rect id="p512" serif:id="p" x="300" y="324" width="12" height="12"/><rect id="p513" serif:id="p" x="312" y="324" width="12" height="12"/><rect id="p514" serif:id="p" x="324" y="324" width="12" height="12"/><rect id="p515" serif:id="p" x="336" y="324" width="12" height="12"/><rect id="p516" serif:id="p" x="348" y="324" width="12" height="12"/><rect id="p517" serif:id="p" x="360" y="324" width="12" height="12"/><rect id="p518" serif:id="p" x="384" y="324" width="12" height="12"/><rect id="p519" serif:id="p" x="396" y="324" width="12" height="12"/><rect id="p520" serif:id="p" x="420" y="324" width="12" height="12"/><rect id="p521" serif:id="p" x="432" y="324" width="12" height="12"/><rect id="p522" serif:id="p" x="48" y="336" width="12" height="12"/><rect id="p523" serif:id="p" x="60" y="336" width="12" height="12"/><rect id="p524" serif:id="p" x="108" y="336" width="12" height="12"/><rect id="p525" serif:id="p" x="132" y="336" width="12" height="12"/><rect id="p526" serif:id="p" x="144" y="336" width="12" height="12"/><rect id="p527" serif:id="p" x="156" y="336" width="12" height="12"/><rect id="p528" serif:id="p" x="168" y="336" width="12" height="12"/><rect id="p529" serif:id="p" x="180" y="336" width="12" height="12"/><rect id="p530" serif:id="p" x="216" y="336" width="12" height="12"/><rect id="p531" serif:id="p" x="276" y="336" width="12" height="12"/><rect id="p532" serif:id="p" x="288" y="336" width="12" height="12"/><rect id="p533" serif:id="p" x="324" y="336" width="12" height="12"/><rect id="p534" serif:id="p" x="336" y="336" width="12" height="12"/><rect id="p535" serif:id="p" x="348" y="336" width="12" height="12"/><rect id="p536" serif:id="p" x="372" y="336" width="12" height="12"/><rect id="p537" serif:id="p" x="408" y="336" width="12" height="12"/><rect id="p538" serif:id="p" x="420" y="336" width="12" height="12"/><rect id="p539" serif:id="p" x="12" y="348" width="12" height="12"/><rect id="p540" serif:id="p" x="24" y="348" width="12" height="12"/><rect id="p541" serif:id="p" x="36" y="348" width="12" height="12"/><rect id="p542" serif:id="p" x="48" y="348" width="12" height="12"/><rect id="p543" serif:id="p" x="72" y="348" width="12" height="12"/><rect id="p544" serif:id="p" x="84" y="348" width="12" height="12"/><rect id="p545" serif:id="p" x="144" y="348" width="12" height="12"/><rect id="p546" serif:id="p" x="204" y="348" width="12" height="12"/><rect id="p547" serif:id="p" x="216" y="348" width="12" height="12"/><rect id="p548" serif:id="p" x="252" y="348" width="12" height="12"/><rect id="p549" serif:id="p" x="264" y="348" width="12" height="12"/><rect id="p550" serif:id="p" x="300" y="348" width="12" height="12"/><rect id="p551" serif:id="p" x="348" y="348" width="12" height="12"/><rect id="p552" serif:id="p" x="360" y="348" width="12" height="12"/><rect id="p553" serif:id="p" x="372" y="348" width="12" height="12"/><rect id="p554" serif:id="p" x="384" y="348" width="12" height="12"/><rect id="p555" serif:id="p" x="396" y="348" width="12" height="12"/><rect id="p556" serif:id="p" x="408" y="348" width="12" height="12"/><rect id="p557" serif:id="p" x="420" y="348" width="12" height="12"/><rect id="p558" serif:id="p" x="432" y="348" width="12" height="12"/><rect id="p559" serif:id="p" x="108" y="360" width="12" height="12"/><rect id="p560" serif:id="p" x="132" y="360" width="12" height="12"/><rect id="p561" serif:id="p" x="168" y="360" width="12" height="12"/><rect id="p562" serif:id="p" x="180" y="360" width="12" height="12"/><rect id="p563" serif:id="p" x="216" y="360" width="12" height="12"/><rect id="p564" serif:id="p" x="228" y="360" width="12" height="12"/><rect id="p565" serif:id="p" x="240" y="360" width="12" height="12"/><rect id="p566" serif:id="p" x="264" y="360" width="12" height="12"/><rect id="p567" serif:id="p" x="276" y="360" width="12" height="12"/><rect id="p568" serif:id="p" x="324" y="360" width="12" height="12"/><rect id="p569" serif:id="p" x="348" y="360" width="12" height="12"/><rect id="p570" serif:id="p" x="396" y="360" width="12" height="12"/><rect id="p571" serif:id="p" x="408" y="360" width="12" height="12"/><rect id="p572" serif:id="p" x="12" y="372" width="12" height="12"/><rect id="p573" serif:id="p" x="24" y="372" width="12" height="12"/><rect id="p574" serif:id="p" x="36" y="372" width="12" height="12"/><rect id="p575" serif:id="p" x="48" y="372" width="12" height="12"/><rect id="p576" serif:id="p" x="60" y="372" width="12" height="12"/><rect id="p577" serif:id="p" x="72" y="372" width="12" height="12"/><rect id="p578" serif:id="p" x="84" y="372" width="12" height="12"/><rect id="p579" serif:id="p" x="108" y="372" width="12" height="12"/><rect id="p580" serif:id="p" x="132" y="372" width="12" height="12"/><rect id="p581" serif:id="p" x="168" y="372" width="12" height="12"/><rect id="p582" serif:id="p" x="180" y="372" width="12" height="12"/><rect id="p583" serif:id="p" x="192" y="372" width="12" height="12"/><rect id="p584" serif:id="p" x="228" y="372" width="12" height="12"/><rect id="p585" serif:id="p" x="252" y="372" width="12" height="12"/><rect id="p586" serif:id="p" x="288" y="372" width="12" height="12"/><rect id="p587" serif:id="p" x="312" y="372" width="12" height="12"/><rect id="p588" serif:id="p" x="324" y="372" width="12" height="12"/><rect id="p589" serif:id="p" x="348" y="372" width="12" height="12"/><rect id="p590" serif:id="p" x="372" y="372" width="12" height="12"/><rect id="p591" serif:id="p" x="396" y="372" width="12" height="12"/><rect id="p592" serif:id="p" x="408" y="372" width="12" height="12"/><rect id="p593" serif:id="p" x="420" y="372" width="12" height="12"/><rect id="p594" serif:id="p" x="12" y="384" width="12" height="12"/><rect id="p595" serif:id="p" x="84" y="384" width="12" height="12"/><rect id="p596" serif:id="p" x="108" y="384" width="12" height="12"/><rect id="p597" serif:id="p" x="120" y="384" width="12" height="12"/><rect id="p598" serif:id="p" x="144" y="384" width="12" height="12"/><rect id="p599" serif:id="p" x="168" y="384" width="12" height="12"/><rect id="p600" serif:id="p" x="204" y="384" width="12" height="12"/><rect id="p601" serif:id="p" x="228" y="384" width="12" height="12"/><rect id="p602" serif:id="p" x="264" y="384" width="12" height="12"/><rect id="p603" serif:id="p" x="288" y="384" width="12" height="12"/><rect id="p604" serif:id="p" x="300" y="384" width="12" height="12"/><rect id="p605" serif:id="p" x="324" y="384" width="12" height="12"/><rect id="p606" serif:id="p" x="348" y="384" width="12" height="12"/><rect id="p607" serif:id="p" x="396" y="384" width="12" height="12"/><rect id="p608" serif:id="p" x="420" y="384" width="12" height="12"/><rect id="p609" serif:id="p" x="12" y="396" width="12" height="12"/><rect id="p610" serif:id="p" x="36" y="396" width="12" height="12"/><rect id="p611" serif:id="p" x="48" y="396" width="12" height="12"/><rect id="p612" serif:id="p" x="60" y="396" width="12" height="12"/><rect id="p613" serif:id="p" x="84" y="396" width="12" height="12"/><rect id="p614" serif:id="p" x="108" y="396" width="12" height="12"/><rect id="p615" serif:id="p" x="144" y="396" width="12" height="12"/><rect id="p616" serif:id="p" x="168" y="396" width="12" height="12"/><rect id="p617" serif:id="p" x="180" y="396" width="12" height="12"/><rect id="p618" serif:id="p" x="216" y="396" width="12" height="12"/><rect id="p619" serif:id="p" x="240" y="396" width="12" height="12"/><rect id="p620" serif:id="p" x="252" y="396" width="12" height="12"/><rect id="p621" serif:id="p" x="264" y="396" width="12" height="12"/><rect id="p622" serif:id="p" x="300" y="396" width="12" height="12"/><rect id="p623" serif:id="p" x="348" y="396" width="12" height="12"/><rect id="p624" serif:id="p" x="360" y="396" width="12" height="12"/><rect id="p625" serif:id="p" x="372" y="396" width="12" height="12"/><rect id="p626" serif:id="p" x="384" y="396" width="12" height="12"/><rect id="p627" serif:id="p" x="396" y="396" width="12" height="12"/><rect id="p628" serif:id="p" x="408" y="396" width="12" height="12"/><rect id="p629" serif:id="p" x="420" y="396" width="12" height="12"/><rect id="p630" serif:id="p" x="432" y="396" width="12" height="12"/><rect id="p631" serif:id="p" x="444" y="396" width="12" height="12"/><rect id="p632" serif:id="p" x="12" y="408" width="12" height="12"/><rect id="p633" serif:id="p" x="36" y="408" width="12" height="12"/><rect id="p634" serif:id="p" x="48" y="408" width="12" height="12"/><rect id="p635" serif:id="p" x="60" y="408" width="12" height="12"/><rect id="p636" serif:id="p" x="84" y="408" width="12" height="12"/><rect id="p637" serif:id="p" x="120" y="408" width="12" height="12"/><rect id="p638" serif:id="p" x="132" y="408" width="12" height="12"/><rect id="p639" serif:id="p" x="156" y="408" width="12" height="12"/><rect id="p640" serif:id="p" x="192" y="408" width="12" height="12"/><rect id="p641" serif:id="p" x="228" y="408" width="12" height="12"/><rect id="p642" serif:id="p" x="240" y="408" width="12" height="12"/><rect id="p643" serif:id="p" x="264" y="408" width="12" height="12"/><rect id="p644" serif:id="p" x="324" y="408" width="12" height="12"/><rect id="p645" serif:id="p" x="372" y="408" width="12" height="12"/><rect id="p646" serif:id="p" x="384" y="408" width="12" height="12"/><rect id="p647" serif:id="p" x="396" y="408" width="12" height="12"/><rect id="p648" serif:id="p" x="420" y="408" width="12" height="12"/><rect id="p649" serif:id="p" x="12" y="420" width="12" height="12"/><rect id="p650" serif:id="p" x="36" y="420" width="12" height="12"/><rect id="p651" serif:id="p" x="48" y="420" width="12" height="12"/><rect id="p652" serif:id="p" x="60" y="420" width="12" height="12"/><rect id="p653" serif:id="p" x="84" y="420" width="12" height="12"/><rect id="p654" serif:id="p" x="168" y="420" width="12" height="12"/><rect id="p655" serif:id="p" x="192" y="420" width="12" height="12"/><rect id="p656" serif:id="p" x="228" y="420" width="12" height="12"/><rect id="p657" serif:id="p" x="240" y="420" width="12" height="12"/><rect id="p658" serif:id="p" x="264" y="420" width="12" height="12"/><rect id="p659" serif:id="p" x="276" y="420" width="12" height="12"/><rect id="p660" serif:id="p" x="348" y="420" width="12" height="12"/><rect id="p661" serif:id="p" x="372" y="420" width="12" height="12"/><rect id="p662" serif:id="p" x="384" y="420" width="12" height="12"/><rect id="p663" serif:id="p" x="420" y="420" width="12" height="12"/><rect id="p664" serif:id="p" x="432" y="420" width="12" height="12"/><rect id="p665" serif:id="p" x="12" y="432" width="12" height="12"/><rect id="p666" serif:id="p" x="84" y="432" width="12" height="12"/><rect id="p667" serif:id="p" x="120" y="432" width="12" height="12"/><rect id="p668" serif:id="p" x="168" y="432" width="12" height="12"/><rect id="p669" serif:id="p" x="180" y="432" width="12" height="12"/><rect id="p670" serif:id="p" x="204" y="432" width="12" height="12"/><rect id="p671" serif:id="p" x="216" y="432" width="12" height="12"/><rect id="p672" serif:id="p" x="240" y="432" width="12" height="12"/><rect id="p673" serif:id="p" x="252" y="432" width="12" height="12"/><rect id="p674" serif:id="p" x="264" y="432" width="12" height="12"/><rect id="p675" serif:id="p" x="276" y="432" width="12" height="12"/><rect id="p676" serif:id="p" x="300" y="432" width="12" height="12"/><rect id="p677" serif:id="p" x="324" y="432" width="12" height="12"/><rect id="p678" serif:id="p" x="360" y="432" width="12" height="12"/><rect id="p679" serif:id="p" x="384" y="432" width="12" height="12"/><rect id="p680" serif:id="p" x="396" y="432" width="12" height="12"/><rect id="p681" serif:id="p" x="420" y="432" width="12" height="12"/><rect id="p682" serif:id="p" x="432" y="432" width="12" height="12"/><rect id="p683" serif:id="p" x="12" y="444" width="12" height="12"/><rect id="p684" serif:id="p" x="24" y="444" width="12" height="12"/><rect id="p685" serif:id="p" x="36" y="444" width="12" height="12"/><rect id="p686" serif:id="p" x="48" y="444" width="12" height="12"/><rect id="p687" serif:id="p" x="60" y="444" width="12" height="12"/><rect id="p688" serif:id="p" x="72" y="444" width="12" height="12"/><rect id="p689" serif:id="p" x="84" y="444" width="12" height="12"/><rect id="p690" serif:id="p" x="120" y="444" width="12" height="12"/><rect id="p691" serif:id="p" x="156" y="444" width="12" height="12"/><rect id="p692" serif:id="p" x="204" y="444" width="12" height="12"/><rect id="p693" serif:id="p" x="228" y="444" width="12" height="12"/><rect id="p694" serif:id="p" x="240" y="444" width="12" height="12"/><rect id="p695" serif:id="p" x="252" y="444" width="12" height="12"/><rect id="p696" serif:id="p" x="288" y="444" width="12" height="12"/><rect id="p697" serif:id="p" x="312" y="444" width="12" height="12"/><rect id="p698" serif:id="p" x="336" y="444" width="12" height="12"/><rect id="p699" serif:id="p" x="360" y="444" width="12" height="12"/><rect id="p700" serif:id="p" x="372" y="444" width="12" height="12"/><rect id="p701" serif:id="p" x="420" y="444" width="12" height="12"/><rect id="p702" serif:id="p" x="432" y="444" width="12" height="12"/><rect id="p703" serif:id="p" x="444" y="444" width="12" height="12"/></g></svg>