<?xml version="1.0" encoding="UTF-8" standalone="no"?>
<!DOCTYPE svg PUBLIC "-//W3C//DTD SVG 1.1//EN" "http://www.w3.org/Graphics/SVG/1.1/DTD/svg11.dtd">
<svg width="100%" height="100%" viewBox="0 0 14 36" version="1.1" xmlns="http://www.w3.org/2000/svg" xmlns:xlink="http://www.w3.org/1999/xlink" xml:space="preserve" xmlns:serif="http://www.serif.com/" style="fill-rule:evenodd;clip-rule:evenodd;stroke-linejoin:round;stroke-miterlimit:1.41421;">
    <g id="apple" transform="matrix(4.00809,0,0,4.00075,-27.1611,-3.3485)">
        <path d="M8.26,4.31C7.84,4.52 7.44,4.61 7.04,4.58C6.98,4.18 7.04,3.77 7.21,3.32C7.36,2.94 7.56,2.59 7.83,2.28C8.1,1.97 8.43,1.71 8.84,1.5C9.25,1.29 9.64,1.18 10.01,1.16C10.06,1.58 10.01,2 9.86,2.44C9.72,2.84 9.51,3.2 9.24,3.53C8.97,3.86 8.64,4.12 8.26,4.31Z" style="fill:rgb(85,85,85);fill-rule:nonzero;"/>
    </g>
    <g transform="matrix(4.00809,0,0,4.00075,-27.1611,16.1421)">
        <g>
            <path id="apple1" serif:id="apple" d="M8.26,4.31C7.84,4.52 7.44,4.61 7.04,4.58C6.98,4.18 7.04,3.77 7.21,3.32C7.36,2.94 7.56,2.59 7.83,2.28C8.1,1.97 8.43,1.71 8.84,1.5C9.25,1.29 9.64,1.18 10.01,1.16C10.06,1.58 10.01,2 9.86,2.44C9.72,2.84 9.51,3.2 9.24,3.53C8.97,3.86 8.64,4.12 8.26,4.31Z" style="fill:rgb(51,51,51);fill-rule:nonzero;"/>
        </g>
    </g>
</svg>
